<?xml version="1.0" encoding="UTF-8" standalone="no"?>
<svg
   xmlns:osb="http://www.openswatchbook.org/uri/2009/osb"
   xmlns:dc="http://purl.org/dc/elements/1.1/"
   xmlns:cc="http://creativecommons.org/ns#"
   xmlns:rdf="http://www.w3.org/1999/02/22-rdf-syntax-ns#"
   xmlns:svg="http://www.w3.org/2000/svg"
   xmlns="http://www.w3.org/2000/svg"
   xmlns:xlink="http://www.w3.org/1999/xlink"
   version="1.1"
   id="svg2"
   viewBox="0 0 46.827454 82.978722"
   height="23.41844mm"
   width="13.215751mm">
  <defs
     id="defs4">
  </defs>
  <metadata
     id="metadata7">
    <rdf:RDF>
      <cc:Work
         rdf:about="">
        <dc:format>image/svg+xml</dc:format>
        <dc:type
           rdf:resource="http://purl.org/dc/dcmitype/StillImage" />
        <dc:title></dc:title>
      </cc:Work>
    </rdf:RDF>
  </metadata>
  <g
     style="display:inline"
     transform="translate(418.20609,-259.93618)"
     id="layer1">
    <g
       style="stroke-width:1.04484773"
       transform="matrix(-0.95707354,0,0,0.95708104,-703.80298,-200.19352)"
       id="g33661">
      <g
         style="display:inline;stroke-width:1.04484773"
         id="g33326"
         transform="translate(-209.69087,165.87599)">
        <path
           style="opacity:1;fill:none;fill-opacity:1;fill-rule:nonzero;stroke:#000000;stroke-width:0.97954458;stroke-linecap:round;stroke-linejoin:round;stroke-miterlimit:4;stroke-dasharray:none;stroke-dashoffset:0;stroke-opacity:1"
           d="m -107.34374,348.29906 c 1.65688,-0.27379 3.28567,-0.71734 4.8526,-1.32145 0.40889,-0.15764 0.81935,-0.3295 1.16398,-0.60019 0.17232,-0.13534 0.32682,-0.29502 0.44555,-0.47918 0.11874,-0.18415 0.20108,-0.39332 0.2269,-0.61091 0.0343,-0.28935 -0.0323,-0.58462 -0.15433,-0.84921 -0.12207,-0.26458 -0.29775,-0.50108 -0.48807,-0.72172 -0.89834,-1.04145 -2.16063,-1.76264 -3.51399,-2.00766"
           id="path33322" />
        <path
           style="opacity:1;fill:none;fill-opacity:1;fill-rule:nonzero;stroke:#000000;stroke-width:0.97954458;stroke-linecap:round;stroke-linejoin:round;stroke-miterlimit:4;stroke-dasharray:none;stroke-dashoffset:0;stroke-opacity:1"
           d="m -101.25689,357.34326 c 2.57329,-0.68772 5.031089,-1.80552 7.240643,-3.29302 1.028724,-0.69255 2.009517,-1.46991 2.826558,-2.40283 0.817041,-0.93292 1.467824,-2.02919 1.775638,-3.2305 0.473292,-1.84713 0.10222,-3.84309 -0.750792,-5.54845 -0.853013,-1.70536 -2.158733,-3.14709 -3.585144,-4.41249 -3.474271,-3.0821 -7.767963,-5.2319 -12.317183,-6.16706"
           id="path33324" />
      </g>
      <path
         id="path33278"
         d="m -317.04807,514.1766 c -0.0239,-0.39926 -0.0183,-0.80028 0.0168,-1.19871 0.0424,-0.48172 0.12801,-0.95964 0.25535,-1.42616 -0.85323,-0.17211 -1.72214,-0.26635 -2.59243,-0.28117 -0.54387,-0.009 -1.09559,0.0116 -1.62337,-0.12005 -0.26389,-0.0658 -0.52013,-0.17037 -0.74243,-0.32706 -0.2223,-0.15669 -0.40982,-0.36724 -0.5199,-0.61594 -0.15421,-0.34839 -0.14705,-0.7583 -0.01,-1.1138 0.13701,-0.3555 0.39721,-0.65701 0.71134,-0.87258 0.31414,-0.21557 0.68035,-0.34826 1.05498,-0.41757 0.37463,-0.0693 0.75842,-0.0769 1.13888,-0.057 1.32279,0.0695 2.62647,0.47658 3.75376,1.17216 0.38555,-0.66643 0.87385,-1.2733 1.44232,-1.79255 0.48126,-0.43959 1.01976,-0.81644 1.5976,-1.11801 -0.48889,-1.76819 -1.10063,-3.5024 -1.82934,-5.18599 -0.78534,-1.81441 -1.74558,-3.61967 -3.26412,-4.88572 -1.03347,-0.86163 -2.29717,-1.43849 -3.61995,-1.68491 -1.32278,-0.24642 -2.7019,-0.16487 -3.99523,0.20629 -2.78075,0.79803 -5.12967,3.0031 -6.0529,5.74483 -0.56629,1.68172 -0.61079,3.50644 -0.35619,5.26258 0.2546,1.75614 0.79869,3.45666 1.38998,5.12975 0.49972,1.41397 1.03482,2.81542 1.60465,4.20262"
         style="display:inline;opacity:1;fill:none;fill-opacity:1;fill-rule:nonzero;stroke:#000000;stroke-width:0.97954458;stroke-linecap:round;stroke-linejoin:round;stroke-miterlimit:4;stroke-dasharray:none;stroke-dashoffset:0;stroke-opacity:1" />
      <path
         style="display:inline;opacity:1;fill:none;fill-opacity:1;fill-rule:nonzero;stroke:#000000;stroke-width:0.97954458;stroke-linecap:round;stroke-linejoin:round;stroke-miterlimit:4;stroke-dasharray:none;stroke-dashoffset:0;stroke-opacity:1"
         d="m -320.43296,548.74855 -0.82031,18.00544"
         id="path33286" />
      <ellipse
         cy="503.63885"
         cx="-321.92569"
         id="ellipse33290"
         style="display:inline;opacity:1;fill:#000000;fill-opacity:1;fill-rule:nonzero;stroke:none;stroke-width:0.97954458;stroke-linecap:round;stroke-linejoin:round;stroke-miterlimit:4;stroke-dasharray:none;stroke-dashoffset:0;stroke-opacity:1"
         rx="0.94654888"
         ry="0.94693279" />
      <ellipse
         style="display:inline;opacity:1;fill:#000000;fill-opacity:1;fill-rule:nonzero;stroke:none;stroke-width:0.97954458;stroke-linecap:round;stroke-linejoin:round;stroke-miterlimit:4;stroke-dasharray:none;stroke-dashoffset:0;stroke-opacity:1"
         id="ellipse33292"
         cx="-318.23633"
         cy="503.56329"
         rx="0.94654888"
         ry="0.94693279" />
      <path
         id="path32848-5"
         style="display:inline;opacity:1;fill:#ffffff;fill-opacity:1;fill-rule:nonzero;stroke:#000000;stroke-width:0.97954458;stroke-linecap:round;stroke-linejoin:round;stroke-miterlimit:4;stroke-dasharray:none;stroke-dashoffset:0;stroke-opacity:1"
         d="m -332.33909,524.28876 c -3.45735,-0.52233 -6.79585,-1.81683 -9.70158,-3.76177 -1.03097,-0.69007 -2.01366,-1.46615 -2.83121,-2.39927 -0.81755,-0.93312 -1.46735,-2.03119 -1.77099,-3.23406 -0.46605,-1.84625 -0.0836,-3.83704 0.77191,-5.53818 0.85555,-1.70114 2.15542,-3.14149 3.56403,-4.42276 3.35178,-3.04876 7.41488,-5.3105 11.77211,-6.55301 0.87305,1.20609 1.50096,2.58885 1.83451,4.03993 0.33944,1.47671 0.3736,3.02288 0.0997,4.51314 -1.98133,0.4694 -3.86267,1.35652 -5.48534,2.58654 -0.3642,0.27607 -0.72032,0.57434 -0.97935,0.95085 -0.25903,0.37651 -0.41391,0.84344 -0.33688,1.29391 0.0734,0.42905 0.34977,0.80312 0.69023,1.07432 0.34046,0.2712 0.74323,0.45142 1.1462,0.61596 1.55588,0.63529 3.18943,1.08014 4.8526,1.32145" />
      <path
         style="display:inline;opacity:1;fill:none;fill-opacity:1;fill-rule:nonzero;stroke:#000000;stroke-width:0.97954458;stroke-linecap:round;stroke-linejoin:round;stroke-miterlimit:4;stroke-dasharray:none;stroke-dashoffset:0;stroke-opacity:1"
         d="m -331.6281,522.1825 c -1.18157,3.4492 -1.90492,7.05506 -2.14508,10.69311 -0.25224,3.82101 0.0263,7.65428 0.24368,11.47743 0.28176,4.95518 0.46086,9.91619 0.53716,14.87879 -1.25394,0.644 -2.34859,1.59543 -3.16098,2.74744 -1.02328,1.45105 -1.59062,3.21878 -1.60289,4.99431 l 33.6229,-0.10978 c -0.093,-1.71565 -0.74675,-3.39636 -1.83742,-4.72396 -0.92743,-1.1289 -2.16481,-2.00055 -3.54007,-2.49372 0.23191,-4.84617 0.56123,-9.68768 0.98771,-14.52061 0.34344,-3.89199 0.75007,-7.80751 0.38362,-11.6974 -0.40633,-4.31325 -1.77495,-8.53317 -3.97747,-12.26388"
         id="path33282" />
      <path
         style="opacity:1;fill:none;fill-opacity:1;fill-rule:nonzero;stroke:#000000;stroke-width:0.97954458;stroke-linecap:round;stroke-linejoin:round;stroke-miterlimit:4;stroke-dasharray:none;stroke-dashoffset:0;stroke-opacity:1"
         d="m -330.47227,490.78969 -3.89462,-5.51046"
         id="path33450" />
      <path
         style="opacity:1;fill:none;fill-opacity:1;fill-rule:nonzero;stroke:#000000;stroke-width:0.97954458;stroke-linecap:round;stroke-linejoin:round;stroke-miterlimit:4;stroke-dasharray:none;stroke-dashoffset:0;stroke-opacity:1"
         d="m -323.84316,487.97231 -0.0829,-6.71199"
         id="path33454" />
      <path
         style="opacity:1;fill:none;fill-opacity:1;fill-rule:nonzero;stroke:#000000;stroke-width:0.97954458;stroke-linecap:round;stroke-linejoin:round;stroke-miterlimit:4;stroke-dasharray:none;stroke-dashoffset:0;stroke-opacity:1"
         d="m -316.55111,490.20964 3.39742,-5.71762"
         id="path33458" />
    </g>
  </g>
</svg>
