<?xml version="1.0" encoding="UTF-8" standalone="no"?>
<svg
   xmlns:dc="http://purl.org/dc/elements/1.1/"
   xmlns:cc="http://creativecommons.org/ns#"
   xmlns:rdf="http://www.w3.org/1999/02/22-rdf-syntax-ns#"
   xmlns:svg="http://www.w3.org/2000/svg"
   xmlns="http://www.w3.org/2000/svg"
   version="1.1"
   id="svg2"
   viewBox="0 0 65.057946 102.04439"
   height="28.799196mm"
   width="18.360802mm">
  <defs
     id="defs4" />
  <metadata
     id="metadata7">
    <rdf:RDF>
      <cc:Work
         rdf:about="">
        <dc:format>image/svg+xml</dc:format>
        <dc:type
           rdf:resource="http://purl.org/dc/dcmitype/StillImage" />
        <dc:title></dc:title>
      </cc:Work>
    </rdf:RDF>
  </metadata>
  <g
     style="display:inline"
     transform="translate(179.80146,-240.1174)"
     id="layer1">
    <g
       style="stroke-width:1.04484773"
       transform="matrix(0.95707354,0,0,0.95708104,-1.0823207,-203.85954)"
       id="g33696">
      <g
         style="stroke-width:1.04484773"
         id="g33633"
         transform="translate(17.034174,-50.862718)">
        <path
           id="path33068"
           d="m -172.67308,568.08285 c -0.0689,-1.84465 0.44211,-3.70678 1.44298,-5.25783 0.76763,-1.1896 1.81809,-2.19535 3.03992,-2.91056 -0.48889,-1.76819 -1.10063,-3.5024 -1.82934,-5.18599 -0.78534,-1.81441 -1.74558,-3.61967 -3.26412,-4.88572 -1.03347,-0.86163 -2.29717,-1.43849 -3.61995,-1.68491 -1.32278,-0.24642 -2.7019,-0.16487 -3.99523,0.20629 -2.78075,0.79803 -5.12967,3.0031 -6.0529,5.74483 -0.56629,1.68172 -0.61079,3.50644 -0.35619,5.26258 0.2546,1.75614 0.79869,3.45666 1.38998,5.12975 0.49972,1.41397 1.03482,2.81542 1.60465,4.20262"
           style="display:inline;opacity:1;fill:none;fill-opacity:1;fill-rule:nonzero;stroke:#000000;stroke-width:0.97954458;stroke-linecap:round;stroke-linejoin:round;stroke-miterlimit:4;stroke-dasharray:none;stroke-dashoffset:0;stroke-opacity:1" />
        <path
           style="display:inline;opacity:1;fill:none;fill-opacity:1;fill-rule:nonzero;stroke:#000000;stroke-width:0.97954458;stroke-linecap:round;stroke-linejoin:round;stroke-miterlimit:4;stroke-dasharray:none;stroke-dashoffset:0;stroke-opacity:1"
           d="m -187.54608,593.54969 -1.07127,19.58839 c -1.25394,0.644 -2.34859,1.59543 -3.16098,2.74744 -1.02328,1.45105 -1.59062,3.21878 -1.60289,4.99431 l 33.6229,-0.10978 c -0.093,-1.71565 -0.74675,-3.39636 -1.83742,-4.72396 -0.92743,-1.1289 -2.16482,-2.00055 -3.54008,-2.49372 0.2319,-4.84617 0.56123,-9.68768 0.98771,-14.52061 0.34345,-3.89199 0.75007,-7.80751 0.38363,-11.6974 -0.40633,-4.31325 -1.77495,-8.53318 -3.97747,-12.26388"
           id="path7621-2" />
        <path
           style="display:inline;opacity:1;fill:none;fill-opacity:1;fill-rule:nonzero;stroke:#000000;stroke-width:0.97954458;stroke-linecap:round;stroke-linejoin:round;stroke-miterlimit:4;stroke-dasharray:none;stroke-dashoffset:0;stroke-opacity:1"
           d="m -176.05797,602.6548 -0.82031,18.00544"
           id="path7627-2" />
        <ellipse
           cy="557.5451"
           cx="-177.55069"
           id="ellipse7633-8"
           style="display:inline;opacity:1;fill:#000000;fill-opacity:1;fill-rule:nonzero;stroke:none;stroke-width:0.97954458;stroke-linecap:round;stroke-linejoin:round;stroke-miterlimit:4;stroke-dasharray:none;stroke-dashoffset:0;stroke-opacity:1"
           rx="0.94654888"
           ry="0.94693279" />
        <ellipse
           style="display:inline;opacity:1;fill:#000000;fill-opacity:1;fill-rule:nonzero;stroke:none;stroke-width:0.97954458;stroke-linecap:round;stroke-linejoin:round;stroke-miterlimit:4;stroke-dasharray:none;stroke-dashoffset:0;stroke-opacity:1"
           id="ellipse7635-0"
           cx="-173.86134"
           cy="557.46954"
           rx="0.94654888"
           ry="0.94693279" />
        <g
           style="stroke-width:1.04484773"
           transform="translate(-65.156243,219.84373)"
           id="g33320">
          <path
             style="opacity:1;fill:none;fill-opacity:1;fill-rule:nonzero;stroke:#000000;stroke-width:0.97954458;stroke-linecap:round;stroke-linejoin:round;stroke-miterlimit:4;stroke-dasharray:none;stroke-dashoffset:0;stroke-opacity:1"
             d="m -107.34374,348.29906 c 1.65688,-0.27379 3.28567,-0.71734 4.8526,-1.32145 0.40889,-0.15764 0.81935,-0.3295 1.16398,-0.60019 0.17232,-0.13534 0.32682,-0.29502 0.44555,-0.47918 0.11874,-0.18415 0.20108,-0.39332 0.2269,-0.61091 0.0343,-0.28935 -0.0323,-0.58462 -0.15433,-0.84921 -0.12207,-0.26458 -0.29775,-0.50108 -0.48807,-0.72172 -0.89834,-1.04145 -2.16063,-1.76264 -3.51399,-2.00766"
             id="path32708" />
          <path
             style="opacity:1;fill:none;fill-opacity:1;fill-rule:nonzero;stroke:#000000;stroke-width:0.97954458;stroke-linecap:round;stroke-linejoin:round;stroke-miterlimit:4;stroke-dasharray:none;stroke-dashoffset:0;stroke-opacity:1"
             d="m -101.25689,357.34326 c 2.57329,-0.68772 5.031089,-1.80552 7.240643,-3.29302 1.028724,-0.69255 2.009517,-1.46991 2.826558,-2.40283 0.817041,-0.93292 1.467824,-2.02919 1.775638,-3.2305 0.473292,-1.84713 0.10222,-3.84309 -0.750792,-5.54845 -0.853013,-1.70536 -2.158733,-3.14709 -3.585144,-4.41249 -3.474271,-3.0821 -7.767963,-5.2319 -12.317183,-6.16706"
             id="path32716" />
        </g>
        <path
           id="path32720"
           d="m -172.29947,564.42245 c -1.4623,-0.7077 -3.06105,-1.13215 -4.68182,-1.24296 -1.10758,-0.0757 -2.22503,-0.006 -3.31457,0.20716"
           style="opacity:1;fill:none;fill-opacity:1;fill-rule:nonzero;stroke:#000000;stroke-width:0.97954458;stroke-linecap:round;stroke-linejoin:round;stroke-miterlimit:4;stroke-dasharray:none;stroke-dashoffset:0;stroke-opacity:1" />
        <g
           style="stroke-width:1.04484773"
           transform="translate(-65.156243,219.84373)"
           id="g33090">
          <path
             style="display:inline;opacity:1;fill:none;fill-opacity:1;fill-rule:nonzero;stroke:#000000;stroke-width:0.97954458;stroke-linecap:round;stroke-linejoin:round;stroke-miterlimit:4;stroke-dasharray:none;stroke-dashoffset:0;stroke-opacity:1"
             d="m -119.15704,348.86018 c -4.31629,1.15574 -8.49415,2.82756 -12.4162,4.9685 -1.31283,0.71664 -2.6058,1.4919 -3.72487,2.48426 -0.86438,0.76651 -1.62328,1.66627 -2.13924,2.69994 -0.51596,1.03367 -0.78079,2.20706 -0.6544,3.35541 0.13781,1.25203 0.73245,2.42283 1.52896,3.3986 0.79652,0.97577 1.78956,1.77244 2.81672,2.50149 2.06901,1.46853 4.30726,2.69296 6.63686,3.69812 1.974,0.85173 4.01535,1.54731 6.09871,2.07811 0.851,-0.79902 1.53465,-1.77548 1.9943,-2.8485 0.53437,-1.24742 0.76382,-2.62418 0.66291,-3.97748"
             id="path7617-5" />
          <path
             style="opacity:1;fill:none;fill-opacity:1;fill-rule:nonzero;stroke:#000000;stroke-width:0.97954458;stroke-linecap:round;stroke-linejoin:round;stroke-miterlimit:4;stroke-dasharray:none;stroke-dashoffset:0;stroke-opacity:1"
             d="m -118.84639,359.31345 -7.58917,2.86419 8.06927,5.04049"
             id="path32724" />
        </g>
      </g>
      <g
         style="stroke-width:1.04484773"
         id="g33028"
         transform="translate(-28.200196,198.27789)">
        <ellipse
           cy="278.44965"
           cx="-103.39496"
           id="ellipse7637"
           style="display:inline;opacity:1;fill:none;fill-opacity:1;fill-rule:nonzero;stroke:#000000;stroke-width:0.97954458;stroke-linecap:round;stroke-linejoin:round;stroke-miterlimit:4;stroke-dasharray:none;stroke-dashoffset:0;stroke-opacity:1"
           rx="12.346289"
           ry="12.351299" />
        <ellipse
           cy="287.11618"
           cx="-120.19479"
           id="ellipse7639"
           style="display:inline;opacity:1;fill:none;fill-opacity:1;fill-rule:nonzero;stroke:#000000;stroke-width:0.97954458;stroke-linecap:round;stroke-linejoin:round;stroke-miterlimit:4;stroke-dasharray:none;stroke-dashoffset:0;stroke-opacity:1"
           rx="1.5946282"
           ry="1.5952753" />
        <ellipse
           style="display:inline;opacity:1;fill:none;fill-opacity:1;fill-rule:nonzero;stroke:#000000;stroke-width:0.97954458;stroke-linecap:round;stroke-linejoin:round;stroke-miterlimit:4;stroke-dasharray:none;stroke-dashoffset:0;stroke-opacity:1"
           id="ellipse7641"
           cx="-124.60792"
           cy="293.87213"
           rx="0.99321818"
           ry="0.99362129" />
        <g
           id="g11637">
          <path
             id="path7643"
             d="m -106.74219,276.08909 c -0.0392,-0.66072 0.13571,-1.33246 0.49223,-1.89012 0.35651,-0.55766 0.89278,-0.99839 1.50894,-1.24012 0.61616,-0.24173 1.30907,-0.28322 1.94967,-0.11674 0.6406,0.16647 1.22564,0.54007 1.64615,1.0512 0.36507,0.44374 0.60571,0.98878 0.68768,1.55752 0.082,0.56874 0.005,1.15954 -0.21991,1.68831 -0.22492,0.52877 -0.59715,0.99397 -1.06371,1.3294 -0.46656,0.33542 -1.02609,0.54009 -1.59896,0.58487 v 2.52515"
             style="display:inline;opacity:1;fill:none;fill-opacity:1;fill-rule:nonzero;stroke:#000000;stroke-width:0.97954458;stroke-linecap:round;stroke-linejoin:round;stroke-miterlimit:4;stroke-dasharray:none;stroke-dashoffset:0;stroke-opacity:1" />
          <ellipse
             ry="0.94693279"
             rx="0.94654888"
             cy="283.89786"
             cx="-103.29782"
             id="ellipse7645"
             style="display:inline;opacity:1;fill:#000000;fill-opacity:1;fill-rule:nonzero;stroke:none;stroke-width:0.85168612;stroke-linecap:round;stroke-linejoin:round;stroke-miterlimit:4;stroke-dasharray:none;stroke-dashoffset:0;stroke-opacity:1" />
        </g>
      </g>
    </g>
  </g>
</svg>
