<?xml version="1.0" encoding="UTF-8" standalone="no"?>
<svg
   xmlns:dc="http://purl.org/dc/elements/1.1/"
   xmlns:cc="http://creativecommons.org/ns#"
   xmlns:rdf="http://www.w3.org/1999/02/22-rdf-syntax-ns#"
   xmlns:svg="http://www.w3.org/2000/svg"
   xmlns="http://www.w3.org/2000/svg"
   xmlns:sodipodi="http://sodipodi.sourceforge.net/DTD/sodipodi-0.dtd"
   xmlns:inkscape="http://www.inkscape.org/namespaces/inkscape"
   width="18.429985mm"
   height="26.528002mm"
   viewBox="0 0 18.429985 26.528002"
   version="1.1"
   id="svg3753"
   inkscape:version="1.0.1 (c497b03c, 2020-09-10)"
   sodipodi:docname="crying.svg">
  <defs
     id="defs3747">
    <inkscape:path-effect
       effect="spiro"
       id="path-effect3805"
       is_visible="true"
       lpeversion="0" />
    <inkscape:path-effect
       effect="spiro"
       id="path-effect33480"
       is_visible="true"
       lpeversion="0" />
    <inkscape:path-effect
       effect="spiro"
       id="path-effect33484"
       is_visible="true"
       lpeversion="0" />
    <inkscape:path-effect
       effect="spiro"
       id="path-effect33488"
       is_visible="true"
       lpeversion="0" />
    <inkscape:path-effect
       effect="spiro"
       id="path-effect33174"
       is_visible="true"
       lpeversion="0" />
    <inkscape:path-effect
       effect="spiro"
       id="path-effect3727"
       is_visible="true"
       lpeversion="0" />
    <inkscape:path-effect
       is_visible="true"
       id="path-effect33504"
       effect="spiro"
       lpeversion="0" />
    <inkscape:path-effect
       is_visible="true"
       id="path-effect33512"
       effect="spiro"
       lpeversion="0" />
    <inkscape:path-effect
       effect="spiro"
       id="path-effect33568"
       is_visible="true"
       lpeversion="0" />
    <inkscape:path-effect
       is_visible="true"
       id="path-effect6819-2"
       effect="spiro"
       lpeversion="0" />
  </defs>
  <sodipodi:namedview
     id="base"
     pagecolor="#ffffff"
     bordercolor="#666666"
     borderopacity="1.0"
     inkscape:pageopacity="0.0"
     inkscape:pageshadow="2"
     inkscape:zoom="2.479525"
     inkscape:cx="13.988201"
     inkscape:cy="79.505302"
     inkscape:document-units="mm"
     inkscape:current-layer="layer1"
     inkscape:document-rotation="0"
     showgrid="false"
     fit-margin-top="0"
     fit-margin-left="0"
     fit-margin-right="0"
     fit-margin-bottom="0"
     inkscape:window-width="1248"
     inkscape:window-height="943"
     inkscape:window-x="0"
     inkscape:window-y="23"
     inkscape:window-maximized="0" />
  <metadata
     id="metadata3750">
    <rdf:RDF>
      <cc:Work
         rdf:about="">
        <dc:format>image/svg+xml</dc:format>
        <dc:type
           rdf:resource="http://purl.org/dc/dcmitype/StillImage" />
        <dc:title></dc:title>
      </cc:Work>
    </rdf:RDF>
  </metadata>
  <g
     inkscape:label="Ebene 1"
     inkscape:groupmode="layer"
     id="layer1"
     transform="translate(-93.97072,-61.719475)">
    <g
       id="g33647"
       transform="matrix(0.27010746,0,0,0.27010958,163.13503,-54.774091)"
       style="display:inline;stroke-width:1.04485">
      <path
         inkscape:connector-curvature="0"
         style="display:inline;opacity:1;fill:none;fill-opacity:1;fill-rule:nonzero;stroke:#000000;stroke-width:0.979545;stroke-linecap:round;stroke-linejoin:round;stroke-miterlimit:4;stroke-dasharray:none;stroke-dashoffset:0;stroke-opacity:1"
         inkscape:path-effect="#path-effect33480"
         inkscape:original-d="m -232.17833,480.80179 c 0,0 1.60093,-3.69862 3.02285,-4.83051 1.09757,-0.87371 3.87198,-1.64929 3.87198,-1.64929 0.66899,-1.17467 -0.16806,-3.48578 0.12024,-5.49785 0.45255,-3.15852 -0.54163,-4.73405 -1.32812,-5.72372 -1.49666,-1.81989 -4.25004,-3.93525 -6.60215,-4.07296 -2.77649,-0.16257 -5.94375,1.07227 -7.69183,3.23671 -2.24533,2.78011 -2.06805,6.5709 -2.70336,10.08767 -0.2436,1.34845 0.0169,4.49851 0.0169,4.49851"
         d="m -232.17833,480.80179 c 0.39943,-1.8976 1.49083,-3.64166 3.02285,-4.83051 1.12063,-0.86961 2.46849,-1.44374 3.87198,-1.64929 0.16714,-1.8269 0.20734,-3.66539 0.12024,-5.49785 -0.0939,-1.97486 -0.35461,-4.00292 -1.32812,-5.72372 -0.66254,-1.17112 -1.64105,-2.15713 -2.79155,-2.85487 -1.15049,-0.69774 -2.46953,-1.10854 -3.8106,-1.21809 -2.88339,-0.23555 -5.85973,0.99777 -7.69183,3.23671 -1.12377,1.37332 -1.80988,3.06472 -2.19196,4.7976 -0.38207,1.73288 -0.47366,3.51597 -0.5114,5.29007 -0.0319,1.49933 -0.0263,2.99946 0.0169,4.49851"
         id="path33478"
         sodipodi:nodetypes="cccccsccc"
         inkscape:transform-center-x="-9.1379438"
         inkscape:transform-center-y="-7.7682129" />
      <path
         sodipodi:nodetypes="ccsccscsc"
         style="display:inline;opacity:1;fill:none;fill-opacity:1;fill-rule:nonzero;stroke:#000000;stroke-width:0.979545;stroke-linecap:round;stroke-linejoin:round;stroke-miterlimit:4;stroke-dasharray:none;stroke-dashoffset:0;stroke-opacity:1"
         d="m -248.40995,501.6747 -1.07127,19.58839 c -1.25394,0.644 -2.34859,1.59543 -3.16098,2.74744 -1.02328,1.45105 -1.59062,3.21878 -1.60289,4.99431 l 33.62291,-0.10978 c -0.093,-1.71565 -0.74676,-3.39636 -1.83743,-4.72396 -0.92743,-1.1289 -2.16482,-2.00055 -3.54007,-2.49372 0.41565,-4.90546 0.47165,-9.84135 0.1674,-14.75498 -0.12591,-2.03346 -0.31343,-4.0631 -0.56221,-6.0852"
         id="path33482"
         inkscape:path-effect="#path-effect33484"
         inkscape:original-d="m -248.40995,501.6747 -1.07127,19.58839 c 0,0 -2.19598,1.70195 -3.16098,2.74744 -1.41034,1.52799 -1.60289,4.99431 -1.60289,4.99431 l 33.62291,-0.10978 c 0,0 -0.86089,-3.62797 -1.83743,-4.72396 -1.01146,-1.13518 -3.54007,-2.49372 -3.54007,-2.49372 0,0 -0.1609,-9.48603 0.1674,-14.75498 0.3283,-5.26895 -0.68914,-2.187 -0.56221,-6.0852"
         inkscape:connector-curvature="0" />
      <path
         sodipodi:nodetypes="cc"
         style="display:inline;opacity:1;fill:none;fill-opacity:1;fill-rule:nonzero;stroke:#000000;stroke-width:0.979545;stroke-linecap:round;stroke-linejoin:round;stroke-miterlimit:4;stroke-dasharray:none;stroke-dashoffset:0;stroke-opacity:1"
         d="m -237.2734,510.897 -0.35156,17.88825"
         id="path33486"
         inkscape:path-effect="#path-effect33488"
         inkscape:original-d="m -237.2734,510.897 c 0,6.00181 -0.35156,11.88644 -0.35156,17.88825"
         inkscape:connector-curvature="0" />
      <ellipse
         cy="522.91541"
         cx="-51.349411"
         id="ellipse33490"
         style="display:inline;opacity:1;fill:#000000;fill-opacity:1;fill-rule:nonzero;stroke:none;stroke-width:0.979545;stroke-linecap:round;stroke-linejoin:round;stroke-miterlimit:4;stroke-dasharray:none;stroke-dashoffset:0;stroke-opacity:1"
         rx="0.94654888"
         ry="0.94693279"
         transform="rotate(20.682902)"
         inkscape:transform-center-x="-10.720378"
         inkscape:transform-center-y="-5.610274" />
      <ellipse
         style="display:inline;opacity:1;fill:#000000;fill-opacity:1;fill-rule:nonzero;stroke:none;stroke-width:0.979545;stroke-linecap:round;stroke-linejoin:round;stroke-miterlimit:4;stroke-dasharray:none;stroke-dashoffset:0;stroke-opacity:1"
         id="ellipse33492"
         cx="-47.660065"
         cy="522.83984"
         rx="0.94654888"
         ry="0.94693279"
         transform="rotate(20.682902)"
         inkscape:transform-center-x="-14.198631"
         inkscape:transform-center-y="-4.3779041" />
      <g
         transform="translate(-22.07481,89.531241)"
         id="g33496"
         style="stroke-width:1.04485">
        <path
           sodipodi:nodetypes="cccccccc"
           inkscape:connector-curvature="0"
           id="path33494"
           d="m -221.42948,387.29128 c -3.97749,4.24643 -7.17216,9.22377 -9.37631,14.60841 -1.30547,3.1892 -2.26927,6.53922 -2.58087,9.97115 -0.25257,2.78174 -0.073,5.60229 0.53021,8.32955 1.11216,0.34363 2.27954,0.50783 3.44334,0.48431 1.70265,-0.0344 3.39575,-0.4743 4.89981,-1.27304 -0.25386,-2.88403 -0.12157,-5.8018 0.39223,-8.65102 0.70513,-3.91022 2.13216,-7.68906 4.18773,-11.0893"
           inkscape:original-d="m -221.42948,387.29128 c 0,0 -8.73127,12.46455 -9.37631,14.60841 -0.83607,2.77877 -2.74194,7.35189 -2.58087,9.97115 0.0299,0.48623 0.53021,8.32955 0.53021,8.32955 0,0 2.26327,0.22546 3.44334,0.48431 1.18007,0.25885 4.89981,-1.27304 4.89981,-1.27304 0,0 0.10618,-5.76828 0.39223,-8.65102 0.28606,-2.88274 3.20234,-6.82266 4.18773,-11.0893"
           inkscape:path-effect="#path-effect3805"
           style="display:inline;opacity:1;fill:#ffffff;fill-opacity:1;fill-rule:nonzero;stroke:#000000;stroke-width:0.979545;stroke-linecap:round;stroke-linejoin:round;stroke-miterlimit:4;stroke-dasharray:none;stroke-dashoffset:0;stroke-opacity:1" />
      </g>
      <g
         id="g33500"
         transform="matrix(-1,0,0,1,-453.11196,89.531241)"
         style="stroke-width:1.04485">
        <path
           style="display:inline;opacity:1;fill:none;fill-opacity:1;fill-rule:nonzero;stroke:#000000;stroke-width:0.979545;stroke-linecap:round;stroke-linejoin:round;stroke-miterlimit:4;stroke-dasharray:none;stroke-dashoffset:0;stroke-opacity:1"
           inkscape:path-effect="#path-effect33174"
           inkscape:original-d="m -221.56149,389.95999 c 0,0 -6.37199,7.30073 -7.01703,9.44459 -0.83607,2.77877 -4.36073,10.05883 -4.19966,12.67809 0.0299,0.48623 -0.0783,8.11772 -0.0783,8.11772 0,0 1.45384,0.56804 2.84024,0.65172 1.02745,0.062 2.00754,-0.0281 2.50984,0.082"
           d="m -221.56149,389.95999 c -2.77435,2.79123 -5.14546,5.98263 -7.01703,9.44459 -2.12889,3.93795 -3.61281,8.24016 -4.19966,12.67809 -0.35562,2.68933 -0.38198,5.42203 -0.0783,8.11772 0.92084,0.31457 1.87437,0.53337 2.84024,0.65172 0.83195,0.10194 1.67301,0.12942 2.50984,0.082"
           id="path33498"
           inkscape:connector-curvature="0"
           sodipodi:nodetypes="ccccsc" />
      </g>
      <path
         style="opacity:1;fill:none;fill-opacity:1;fill-rule:nonzero;stroke:#000000;stroke-width:0.979545;stroke-linecap:round;stroke-linejoin:round;stroke-miterlimit:4;stroke-dasharray:none;stroke-dashoffset:0;stroke-opacity:1"
         d="m -230.57267,477.12021 c -0.88018,-1.24567 -2.18795,-2.18316 -3.65029,-2.61673 -1.143,-0.33889 -2.37319,-0.37287 -3.53616,-0.11062 -1.20665,0.2721 -2.34,0.86261 -3.25439,1.69564"
         id="path33502"
         inkscape:connector-curvature="0"
         inkscape:path-effect="#path-effect33504"
         inkscape:original-d="m -230.57267,477.12021 c -1.73428,-0.86031 -1.93431,-1.76589 -3.65029,-2.61673 -0.77932,-0.38644 -1.87401,-0.76257 -3.53616,-0.11062 -1.99754,0.78352 -2.29801,0.92465 -3.25439,1.69564"
         sodipodi:nodetypes="ccsc"
         inkscape:transform-center-x="-11.171984"
         inkscape:transform-center-y="-0.49469113" />
      <path
         style="opacity:1;fill:#ffffff;fill-opacity:1;fill-rule:nonzero;stroke:#000000;stroke-width:0.979545;stroke-linecap:round;stroke-linejoin:round;stroke-miterlimit:4;stroke-dasharray:none;stroke-dashoffset:0;stroke-opacity:1"
         d="m -227.23184,477.32951 c 0.39367,0.37424 0.80234,0.73269 1.2247,1.07422 0.32675,0.26421 0.66491,0.52144 0.92897,0.84831 0.13204,0.16343 0.24464,0.34388 0.3204,0.53985 0.0758,0.19597 0.11399,0.40795 0.0975,0.61741 -0.0201,0.25613 -0.12299,0.50429 -0.28563,0.70318 -0.16264,0.19889 -0.38384,0.34828 -0.62731,0.43032 -0.28481,0.096 -0.60051,0.0993 -0.88635,0.006 -0.28583,-0.0929 -0.53999,-0.28193 -0.70855,-0.53076 -0.14488,-0.21387 -0.22533,-0.46639 -0.26381,-0.72183 -0.0385,-0.25544 -0.0366,-0.51516 -0.0282,-0.77335 0.0239,-0.73545 0.10023,-1.4692 0.22827,-2.19381 z"
         id="path33510"
         inkscape:connector-curvature="0"
         inkscape:path-effect="#path-effect33512"
         inkscape:original-d="m -227.23184,477.32951 c 0,0 0.81535,0.7154 1.2247,1.07422 0.40934,0.3588 0.89688,1.33627 1.34691,2.00557 0.45004,0.66928 -0.60971,0.75493 -0.91294,1.1335 -0.3032,0.37859 -1.06437,-0.35028 -1.5949,-0.5243 -0.53051,-0.17411 -0.1958,-0.99752 -0.29206,-1.49518 -0.0962,-0.49765 0.22827,-2.19381 0.22827,-2.19381 z" />
      <path
         inkscape:original-d="m -233.49277,472.9759 c 0,0 0.20853,1.06448 0.31344,1.59863 0.10491,0.53412 -0.10619,1.60584 -0.15873,2.41065 -0.0525,0.80481 -0.94389,0.22526 -1.41523,0.33976 -0.47131,0.11452 -0.62872,-0.92752 -0.94246,-1.38938 -0.31366,-0.46192 0.45433,-0.90937 0.68212,-1.3622 0.22783,-0.45276 1.52084,-1.59748 1.52084,-1.59748 z"
         inkscape:path-effect="#path-effect33568"
         inkscape:connector-curvature="0"
         id="path33566"
         d="m -233.49277,472.9759 c 0.0831,0.53678 0.18767,1.07022 0.31344,1.59863 0.0973,0.40879 0.2079,0.819 0.2173,1.2391 0.005,0.21006 -0.0164,0.42171 -0.0761,0.62314 -0.0597,0.20144 -0.15895,0.39262 -0.29992,0.54841 -0.17239,0.1905 -0.40543,0.32414 -0.6557,0.38226 -0.25026,0.0581 -0.51665,0.0413 -0.75953,-0.0425 -0.28412,-0.098 -0.53612,-0.28819 -0.7057,-0.53632 -0.16958,-0.24814 -0.25531,-0.55309 -0.23676,-0.85306 0.0159,-0.25783 0.1065,-0.5069 0.23208,-0.73265 0.12557,-0.22575 0.28569,-0.43025 0.45004,-0.62955 0.46817,-0.5677 0.97683,-1.10199 1.52084,-1.59748 z"
         style="opacity:1;fill:#ffffff;fill-opacity:1;fill-rule:nonzero;stroke:#000000;stroke-width:0.979545;stroke-linecap:round;stroke-linejoin:round;stroke-miterlimit:4;stroke-dasharray:none;stroke-dashoffset:0;stroke-opacity:1" />
    </g>
    <path
       sodipodi:nodetypes="cccc"
       inkscape:original-d="m 106.0048,65.06516 c 0.57675,0.98233 1.62686,3.05045 1.62686,3.05045 0,0 1.29235,-1.90886 1.76627,-3.16236 0.47394,-1.2535 1.62359,-2.09184 2.6059,-2.8369"
       inkscape:path-effect="#path-effect6819-2"
       inkscape:connector-curvature="0"
       id="path6817"
       d="m 106.0048,65.06516 1.62686,3.05045 c 0.46692,-1.11626 1.06071,-2.179392 1.76627,-3.16236 0.75056,-1.045656 1.6276,-2.00044 2.6059,-2.8369"
       style="display:inline;opacity:1;fill:none;fill-opacity:1;fill-rule:nonzero;stroke:#000000;stroke-width:0.79375;stroke-linecap:round;stroke-linejoin:round;stroke-miterlimit:4;stroke-dasharray:none;stroke-dashoffset:0;stroke-opacity:1" />
  </g>
</svg>
