<?xml version="1.0" encoding="UTF-8" standalone="no"?>
<!-- Created with Inkscape (http://www.inkscape.org/) -->

<svg
   xmlns:dc="http://purl.org/dc/elements/1.1/"
   xmlns:cc="http://creativecommons.org/ns#"
   xmlns:rdf="http://www.w3.org/1999/02/22-rdf-syntax-ns#"
   xmlns:svg="http://www.w3.org/2000/svg"
   xmlns="http://www.w3.org/2000/svg"
   xmlns:sodipodi="http://sodipodi.sourceforge.net/DTD/sodipodi-0.dtd"
   xmlns:inkscape="http://www.inkscape.org/namespaces/inkscape"
   width="342.10626mm"
   height="99.747917mm"
   viewBox="0 0 342.10626 99.747917"
   version="1.1"
   id="svg8"
   inkscape:version="0.92.4 5da689c313, 2019-01-14"
   sodipodi:docname="reapAir.svg"
   inkscape:export-filename="/home/olf/Code/ReapAir/assets/reapAir.png"
   inkscape:export-xdpi="118.91777"
   inkscape:export-ydpi="118.91777">
  <defs
     id="defs2" />
  <sodipodi:namedview
     id="base"
     pagecolor="#ffffff"
     bordercolor="#666666"
     borderopacity="1.0"
     inkscape:pageopacity="0.0"
     inkscape:pageshadow="2"
     inkscape:zoom="0.70710678"
     inkscape:cx="547.66481"
     inkscape:cy="-105.18629"
     inkscape:document-units="mm"
     inkscape:current-layer="layer1"
     showgrid="false"
     showguides="true"
     inkscape:guide-bbox="true"
     fit-margin-top="0"
     fit-margin-left="0"
     fit-margin-right="0"
     fit-margin-bottom="0"
     inkscape:window-width="1920"
     inkscape:window-height="1061"
     inkscape:window-x="0"
     inkscape:window-y="0"
     inkscape:window-maximized="0" />
  <metadata
     id="metadata5">
    <rdf:RDF>
      <cc:Work
         rdf:about="">
        <dc:format>image/svg+xml</dc:format>
        <dc:type
           rdf:resource="http://purl.org/dc/dcmitype/StillImage" />
        <dc:title></dc:title>
      </cc:Work>
    </rdf:RDF>
  </metadata>
  <g
     inkscape:label="Layer 1"
     inkscape:groupmode="layer"
     id="layer1"
     transform="translate(66.053131,-98.626045)">
    <g
       id="g969">
      <rect
         y="98.626045"
         x="-66.053131"
         height="99.747917"
         width="342.10626"
         id="rect928"
         style="opacity:1;fill:#165044;fill-opacity:1;fill-rule:nonzero;stroke:none;stroke-width:4.13968992;stroke-linecap:round;stroke-linejoin:miter;stroke-miterlimit:4;stroke-dasharray:none;stroke-dashoffset:0;stroke-opacity:1;paint-order:normal" />
      <g
         transform="translate(-0.43646718,-27.97414)"
         id="g958">
        <path
           style="opacity:1;fill:#ffffff;fill-opacity:1;fill-rule:nonzero;stroke:none;stroke-width:2.97721267;stroke-linecap:round;stroke-linejoin:miter;stroke-miterlimit:4;stroke-dasharray:none;stroke-dashoffset:0;stroke-opacity:1;paint-order:normal"
           d="M 7.6005035,137.06257 H 203.25361 v 78.82314 H 7.6005035 Z"
           id="rect939"
           inkscape:connector-curvature="0" />
        <g
           id="g916"
           transform="matrix(26.984625,0,0,26.984625,-254.81349,-3515.5593)">
          <path
             inkscape:connector-curvature="0"
             id="path841-2"
             d="m 9.7245744,136.39835 v 1.88206 h 7.2512376 v -1.88206 H 14.62195 l -0.0677,0.20878 h -0.628386 v -0.20878 h -0.0155 c -0.01258,0.0179 -0.02559,0.0329 -0.03772,0.0532 -0.0381,0.0621 -0.06903,0.12903 -0.09302,0.20102 l -0.177767,0.55242 -0.198954,-0.0656 0.237195,-0.73226 c 10e-4,-0.003 0.0015,-0.006 0.0021,-0.009 h -0.05478 l -0.06821,0.20878 h -0.205156 c -0.02258,0 -0.04316,-0.003 -0.0615,-0.0103 -0.01834,-0.007 -0.03512,-0.0166 -0.05064,-0.0279 -0.02116,0.0126 -0.04436,0.024 -0.06976,0.032 -0.02399,0.009 -0.04784,0.0135 -0.07183,0.0165 -0.0085,0.001 -0.01734,0.002 -0.02584,0.002 -0.0085,10e-4 -0.01682,0.002 -0.02532,0.002 -0.04375,0 -0.08503,-0.01 -0.124541,-0.0295 -0.0381,-0.0197 -0.06837,-0.0518 -0.09095,-0.0956 -0.0085,-0.0183 -0.01492,-0.0358 -0.01912,-0.0527 -8.73e-4,-0.004 -9.23e-4,-0.007 -0.0015,-0.0109 l -0.05788,0.17415 h -0.46147 c -0.0381,0 -0.07413,-0.008 -0.108004,-0.0233 -0.03246,-0.017 -0.05761,-0.0421 -0.07596,-0.076 -0.0085,-0.0156 -0.01492,-0.0329 -0.01912,-0.0512 -0.0042,-0.0184 -0.0062,-0.0365 -0.0062,-0.0548 v -0.004 h -0.0155 l -0.06925,0.20826 h -0.306958 c -0.0014,-0.004 -0.0027,-0.008 -0.0041,-0.0114 -0.0014,-0.004 -0.0027,-0.008 -0.0041,-0.0124 -0.03012,-0.0715 -0.06667,-0.13205 -0.108004,-0.18449 h -0.496094 c -0.0033,0.004 -0.0067,0.009 -0.0098,0.014 l -0.06356,0.0977 c -0.01976,0.0324 -0.04032,0.0642 -0.06149,0.0966 h -0.237195 c 0.04116,-0.0674 0.08086,-0.13807 0.120923,-0.20826 z m 3.2556146,0 c 6.43e-4,0.003 0.0013,0.007 0.0036,0.01 0.0043,0.004 0.01139,0.006 0.02119,0.006 0.02523,0 0.04459,-0.007 0.06356,-0.0155 z"
             style="font-style:normal;font-variant:normal;font-weight:normal;font-stretch:normal;font-size:2.11666656px;line-height:6.61458302px;font-family:Airstream;-inkscape-font-specification:Airstream;font-variant-ligatures:normal;font-variant-caps:normal;font-variant-numeric:normal;font-feature-settings:normal;text-align:start;letter-spacing:0px;word-spacing:0px;writing-mode:lr-tb;text-anchor:start;fill:#000000;fill-opacity:1;stroke:none;stroke-width:0.26458332px;stroke-linecap:butt;stroke-linejoin:miter;stroke-opacity:1"
             sodipodi:nodetypes="cccccccccccccccccscccccscccccscccsccccccccccccccccscc" />
          <path
             inkscape:connector-curvature="0"
             id="path841-2-8"
             d="m 10.94843,135.35998 -0.0677,0.20981 h 0.220142 c 0.01272,0 0.02045,0.002 0.02325,0.006 0.0043,0.003 0.0062,0.009 0.0062,0.017 -0.0014,0.0268 -0.0073,0.0577 -0.0186,0.093 -0.0099,0.0353 -0.02272,0.0745 -0.03824,0.11679 -0.0071,0.0198 -0.01479,0.0392 -0.02326,0.0589 -0.0071,0.0198 -0.01477,0.0397 -0.02325,0.0594 -0.04798,0.11855 -0.103932,0.23634 -0.167432,0.35346 -0.02322,0.0424 -0.04768,0.0816 -0.07131,0.12299 h 0.252181 c 0.08949,-0.13427 0.184417,-0.26435 0.286804,-0.38964 0.108657,-0.13265 0.232887,-0.2414 0.372587,-0.32608 0.06491,-0.0381 0.122179,-0.0646 0.171566,-0.0801 0.04939,-0.0153 0.09184,-0.0218 0.127124,-0.0191 0.02117,10e-4 0.03598,0.007 0.04444,0.0165 0.0085,0.01 0.01359,0.022 0.01499,0.0362 0,0.008 -0.0018,0.0175 -0.0046,0.0274 -0.0014,0.008 -0.004,0.018 -0.0083,0.0279 -0.0043,0.007 -0.0087,0.0148 -0.01292,0.0233 -0.0029,0.007 -0.0061,0.0141 -0.01034,0.0212 -0.0029,0.006 -0.006,0.0112 -0.0088,0.0165 -0.0029,0.004 -0.0055,0.009 -0.0083,0.0129 -0.05927,0.0946 -0.138416,0.16416 -0.237194,0.20929 -0.09878,0.0451 -0.201781,0.0766 -0.309026,0.0935 -0.01975,0.003 -0.04032,0.005 -0.0615,0.008 l -0.05891,0.004 -0.0677,0.21135 c 0.118533,0.003 0.200966,0.0336 0.247531,0.0915 0.0041,0.005 0.0075,0.0106 0.01137,0.0155 h 0.255798 c -0.01381,-0.0313 -0.03,-0.0606 -0.04909,-0.0878 -0.01834,-0.0282 -0.0389,-0.0534 -0.06149,-0.076 0.100189,-0.031 0.19546,-0.0755 0.285771,-0.13333 0.09019,-0.0592 0.163724,-0.1336 0.220141,-0.22376 v -5.1e-4 c 0.01965,-0.0295 0.03659,-0.0609 0.05064,-0.0946 0.01409,-0.0353 0.02431,-0.0713 0.02997,-0.10801 0.0014,-0.007 0.0021,-0.0141 0.0021,-0.0212 0.0014,-0.008 0.0021,-0.0169 0.0021,-0.0253 0,-0.0353 -0.0064,-0.0688 -0.01912,-0.10129 -0.0127,-0.0325 -0.03458,-0.0614 -0.06563,-0.0868 -0.02822,-0.0254 -0.05915,-0.0434 -0.09302,-0.0532 -0.03387,-0.0113 -0.06925,-0.0165 -0.105936,-0.0165 -0.02963,0 -0.0599,0.003 -0.09095,0.0103 -0.03104,0.006 -0.06197,0.0134 -0.09302,0.0232 -0.05927,0.0212 -0.117847,0.0496 -0.1757,0.0848 -0.05645,0.0339 -0.109777,0.0693 -0.159164,0.10594 -0.02823,0.0211 -0.05405,0.0424 -0.07803,0.0636 -0.02399,0.0212 -0.04588,0.0406 -0.06563,0.0589 0.0057,-0.0212 0.0096,-0.0399 0.0124,-0.0568 0.0043,-0.0183 0.0067,-0.0363 0.0067,-0.0532 0.0071,-0.10727 -0.0168,-0.17489 -0.07183,-0.20309 -0.05503,-0.0282 -0.120031,-0.0424 -0.19482,-0.0424 z m 1.551327,0.53899 c -0.0099,0 -0.01892,8.5e-4 -0.02739,0.002 -0.0085,0 -0.01685,8.7e-4 -0.02532,0.002 -0.01835,0.003 -0.03761,0.008 -0.05736,0.015 -0.01835,0.006 -0.03709,0.014 -0.05684,0.0253 -0.04656,0.0226 -0.09165,0.0562 -0.135393,0.10128 -0.04233,0.0437 -0.07837,0.0997 -0.108003,0.16743 -0.0099,0.0239 -0.02009,0.051 -0.02997,0.0806 -0.0085,0.0283 -0.01374,0.0565 -0.01654,0.0847 0,0.006 -6.02e-4,0.0112 -0.0021,0.0165 v 0.004 h 0.454235 c 0.06,-0.0432 0.108724,-0.0847 0.142627,-0.12402 0.03528,-0.0423 0.05848,-0.081 0.06976,-0.11627 0.0057,-0.0141 0.0089,-0.027 0.01034,-0.0382 0.0028,-0.0127 0.0041,-0.0244 0.0041,-0.0357 0,-0.0578 -0.02254,-0.10292 -0.0677,-0.13539 -0.04516,-0.0325 -0.09666,-0.0491 -0.154512,-0.0491 z m 1.363224,0.01 v 0.002 l -0.205155,0.0444 c 0.0014,9.9e-4 0.0021,0.004 0.0021,0.006 0.0014,0.001 0.0027,0.005 0.0041,0.0124 0.0014,0.005 0.0021,0.01 0.0021,0.015 0.0014,0.006 0.0034,0.0117 0.0047,0.0171 0.0043,0.0169 0.0075,0.0363 0.01034,0.0589 0.0028,0.0212 0.0041,0.0453 0.0041,0.0723 0,0.0353 -0.0033,0.0753 -0.01034,0.12041 -0.0064,0.0409 -0.0194,0.0886 -0.03514,0.14004 h 0.271301 c 0.02546,-0.0377 0.05043,-0.0774 0.077,-0.10852 0.0042,-0.004 0.0081,-0.009 0.0124,-0.0129 0.0043,-0.006 0.0081,-0.011 0.01085,-0.015 0.03669,-0.0381 0.07272,-0.0677 0.108004,-0.0889 0.03528,-0.0226 0.06686,-0.0336 0.09508,-0.0336 0.01975,0 0.03653,0.005 0.05064,0.0145 0.01411,0.008 0.02119,0.0239 0.02119,0.0465 0,0.041 -0.01743,0.0801 -0.05271,0.11679 -0.03387,0.0353 -0.07187,0.0604 -0.114204,0.076 -0.0065,0.002 -0.01309,0.004 -0.01964,0.005 h 0.333314 c 0.01829,-0.0296 0.03324,-0.0605 0.04392,-0.0925 0.0127,-0.0353 0.01912,-0.0707 0.01912,-0.10594 0,-0.0593 -0.01678,-0.11211 -0.05064,-0.15864 -0.03245,-0.0466 -0.07688,-0.0788 -0.133326,-0.0971 -0.01553,-0.006 -0.03151,-0.01 -0.04703,-0.0109 -0.01553,-0.003 -0.03099,-0.004 -0.04651,-0.004 -0.06067,0 -0.119254,0.0154 -0.1757,0.0465 -0.05504,0.0296 -0.105225,0.0663 -0.150378,0.11007 -0.0014,-0.0226 -0.0034,-0.0432 -0.0062,-0.0615 -0.0029,-0.0197 -0.0061,-0.0372 -0.01033,-0.0527 -0.0014,-0.008 -0.0027,-0.0167 -0.0041,-0.0238 l -0.0041,-0.0212 v -0.002 c 0,-0.003 -0.0019,-0.008 -0.0047,-0.015 z m -0.431498,0.0186 c -0.112889,0.003 -0.222311,0.024 -0.328145,0.0636 -0.104422,0.0381 -0.19196,0.10441 -0.262517,0.19895 -0.02257,0.0297 -0.04118,0.0624 -0.05529,0.0977 -0.01411,0.0339 -0.02119,0.0693 -0.02119,0.10594 0,0.002 3.09e-4,0.003 5.17e-4,0.004 h 0.210323 c -4.8e-4,-7.7e-4 -10e-4,-0.001 -10e-4,-0.003 0,-0.005 6.02e-4,-0.009 0.0021,-0.015 0.0014,-0.006 0.0027,-0.011 0.0041,-0.015 0.0029,-0.006 0.0048,-0.0105 0.0062,-0.0145 0.0029,-0.004 0.006,-0.009 0.0088,-0.0129 0.0029,-0.006 0.0055,-0.011 0.0083,-0.015 0.0028,-0.004 0.0053,-0.008 0.0067,-0.0103 0.02399,-0.0324 0.05178,-0.0601 0.08423,-0.0827 0.03246,-0.0226 0.06718,-0.0401 0.103869,-0.0527 0.04092,-0.0158 0.08338,-0.0262 0.127125,-0.0315 0.04516,-0.005 0.09024,-0.008 0.135392,-0.008 v -0.2098 h -0.01705 z m -0.927592,0.17725 c -0.01277,0.0224 -0.03679,0.0494 -0.07183,0.0816 -0.03386,0.031 -0.08288,0.0657 -0.147795,0.10387 v -0.002 c 0.0014,-10e-4 0.0021,-0.003 0.0021,-0.004 0.01835,-0.0438 0.04665,-0.0837 0.08475,-0.1204 0.03797,-0.0368 0.08223,-0.0567 0.132808,-0.0594 z m 0.700733,0.0842 c -0.0029,0.008 -0.0055,0.0174 -0.0083,0.0258 -0.0029,0.008 -0.0055,0.0175 -0.0083,0.0274 -0.01552,0.0438 -0.03675,0.0837 -0.06356,0.1204 -0.01132,0.0155 -0.02693,0.0262 -0.04341,0.0351 h 0.276469 l 0.04599,-0.14314 z"
             style="font-style:normal;font-variant:normal;font-weight:normal;font-stretch:normal;font-size:2.11666656px;line-height:6.61458302px;font-family:Airstream;-inkscape-font-specification:Airstream;font-variant-ligatures:normal;font-variant-caps:normal;font-variant-numeric:normal;font-feature-settings:normal;text-align:start;letter-spacing:0px;word-spacing:0px;writing-mode:lr-tb;text-anchor:start;fill:#000000;fill-opacity:1;stroke:none;stroke-width:0.26458332px;stroke-linecap:butt;stroke-linejoin:miter;stroke-opacity:1" />
        </g>
        <path
           inkscape:connector-curvature="0"
           id="path918"
           style="font-style:normal;font-variant:normal;font-weight:normal;font-stretch:normal;font-size:57.11745453px;line-height:178.49205017px;font-family:'Kenyan Coffee';-inkscape-font-specification:'Kenyan Coffee';font-variant-ligatures:normal;font-variant-caps:normal;font-variant-numeric:normal;font-feature-settings:normal;text-align:start;letter-spacing:0px;word-spacing:0px;writing-mode:lr-tb;text-anchor:start;fill:#ffffff;fill-opacity:1;stroke:none;stroke-width:7.13968182px;stroke-linecap:butt;stroke-linejoin:miter;stroke-opacity:1"
           d="m 142.01575,210.81854 v -10.05267 h -5.54039 v 10.05267 h -6.39716 v -36.21246 q 0,-3.08435 0.34271,-4.96922 0.39982,-1.88488 1.42793,-2.85587 1.02812,-1.02812 2.74164,-1.31371 1.77064,-0.3427 4.51228,-0.3427 2.85587,0 4.68363,0.3427 1.88488,0.34271 2.91299,1.37082 1.08523,0.971 1.48505,2.85588 0.39983,1.82775 0.39983,4.9121 v 36.21246 z m -2.79876,-39.81086 q -0.85676,0 -1.42793,0.17135 -0.51406,0.11423 -0.85676,0.51406 -0.28559,0.3427 -0.39983,1.08523 -0.0571,0.68541 -0.0571,1.82776 v 20.79075 h 5.54039 v -20.79075 q 0,-1.14235 -0.11424,-1.82776 -0.11423,-0.74253 -0.39982,-1.08523 -0.28559,-0.39983 -0.85676,-0.51406 -0.57117,-0.17135 -1.42794,-0.17135 z" />
        <path
           inkscape:connector-curvature="0"
           id="path920"
           style="font-style:normal;font-variant:normal;font-weight:normal;font-stretch:normal;font-size:57.11745453px;line-height:178.49205017px;font-family:'Kenyan Coffee';-inkscape-font-specification:'Kenyan Coffee';font-variant-ligatures:normal;font-variant-caps:normal;font-variant-numeric:normal;font-feature-settings:normal;text-align:start;letter-spacing:0px;word-spacing:0px;writing-mode:lr-tb;text-anchor:start;fill:#ffffff;fill-opacity:1;stroke:none;stroke-width:7.13968182px;stroke-linecap:butt;stroke-linejoin:miter;stroke-opacity:1"
           d="m 159.09377,171.63597 h -5.76886 v -5.94022 h 5.76886 z m 0,39.18257 h -5.76886 v -34.21335 h 5.76886 z" />
        <path
           inkscape:connector-curvature="0"
           id="path922"
           style="font-style:normal;font-variant:normal;font-weight:normal;font-stretch:normal;font-size:57.11745453px;line-height:178.49205017px;font-family:'Kenyan Coffee';-inkscape-font-specification:'Kenyan Coffee';font-variant-ligatures:normal;font-variant-caps:normal;font-variant-numeric:normal;font-feature-settings:normal;text-align:start;letter-spacing:0px;word-spacing:0px;writing-mode:lr-tb;text-anchor:start;fill:#ffffff;fill-opacity:1;stroke:none;stroke-width:7.13968182px;stroke-linecap:butt;stroke-linejoin:miter;stroke-opacity:1"
           d="m 170.00317,210.81854 h -5.82598 v -34.21335 h 5.42616 v 2.2847 q 0.62829,-1.14235 1.88487,-1.82776 1.3137,-0.74253 3.5984,-0.74253 1.42794,0 2.39894,0.3427 1.02811,0.34271 1.59928,1.14235 0.6283,0.79965 0.85677,2.17047 0.28558,1.3137 0.28558,3.31281 v 8.5105 h -5.2548 v -7.82509 q 0,-1.25659 -0.39982,-1.82776 -0.39983,-0.57117 -1.71353,-0.57117 -1.19946,0 -1.88487,0.45694 -0.6283,0.45694 -0.971,1.42793 z" />
      </g>
    </g>
  </g>
</svg>
